 http://img828.imageshack.us/img828/613/amusement2008.jpg

Country.......: USA
Genre.........: Horror, Thriller
Date release..: 24.04.2008 [World]
Director......: John Simpson
Writers.......: Jake Wade Wall
Duration......: 85 min.
More..........: http://www.imdb.com/title/tt0476958
Trailer.......: http://www.imdb.com/video/screenplay/vi3115712793
Trailer.......:

Pilot :
The film shows a woman who had a hard childhood. She was tortured, interrogated, and accused knockouts. After some time, a childhood nightmare of persecution and ill return. What happens if some psycho out to get her?

Cats :
Keir O'Donnell 	... 	The Laugh
Katheryn Winnick 	... 	Tabitha
Laura Breckenridge 	... 	Shelby
Jessica Lucas 	... 	Lisa
Tad Hilgenbrink 	... 	Rob (as Tad Hilgenbrinck)
Reid Scott 	... 	Dan
Rena Owen 	... 	Psychiatrist
Kevin Gage 	... 	Tryton
Brennan Bailey 	... 	Danny
Preston Bailey 	... 	Max
Shauna Duggins 	... 	Woman In Truck
Fernanda Dorogi 	... 	Cat
Eyad Kurd Misto 	... 	Child Laugh
Karley Scott Collins 	... 	Child Tabitha
Jadin Gould 	... 	Child Shelby 

Data Technical :
!!! SAMPLE !!!
Audio.....: English
Subtitles.: None
Format                           : AVI
Format/Info                      : Audio Video Interleave
File size                        : 299 MiB
Duration                         : 1h 24mn
Overall bit rate                 : 493 Kbps
Writing application              : VirtualDubMod 1.5.10.2 (build 2542/release)
Writing library                  : VirtualDubMod build 2542/release
Video
ID                               : 0
Format                           : MPEG-4 Visual
Format profile                   : Advanced Simple@L5
Format settings, BVOP            : Yes
Format settings, QPel            : No
Format settings, GMC             : No warppoints
Format settings, Matrix          : Default (H.263)
Muxing mode                      : Packed bitstream
Codec ID                         : XVID
Codec ID/Hint                    : XviD
Duration                         : 1h 24mn
Bit rate                         : 350 Kbps
Width                            : 640 pixels
Height                           : 360 pixels
Display aspect ratio             : 16:9
Frame rate                       : 23.976 fps
Color space                      : YUV
Chroma subsampling               : 4:2:0
Bit depth                        : 8 bits
Scan type                        : Progressive
Bits/(Pixel*Frame)               : 0.063
Stream size                      : 212 MiB (71%)
Writing library                  : XviD 1.2.1
Audio
ID                               : 1
Format                           : MPEG Audio
Format version                   : Version 1
Format profile                   : Layer 3
Mode                             : Joint stereo
Codec ID                         : 55
Codec ID/Hint                    : MP3
Duration                         : 1h 24mn
Bit rate mode                    : Variable
Bit rate                         : 131 Kbps
Channel(s)                       : 2 channels
Sampling rate                    : 48.0 KHz
Stream size                      : 79.1 MiB (26%)
Alignment                        : Aligned on interleaves
Interleave, duration             : 24 ms (0.58 video frame)
Interleave, preload duration     : 123 ms

Screen : 
http://img140.imageshack.us/img140/5224/amusement2008s4.jpg 
http://img535.imageshack.us/img535/2144/amusement2008s1.jpg 
http://img690.imageshack.us/img690/3545/amusement2008s2.jpg 
http://img840.imageshack.us/img840/7649/amusement2008s3.jpg